<svg width="194" height="196" viewBox="0 0 194 196" fill="none" xmlns="http://www.w3.org/2000/svg">
<rect width="194" height="196" rx="5" fill="black"/>
<rect width="194" height="196" rx="5" stroke="black"/>
<path d="M78.2884 71.03C88.8484 71.03 96.2884 74.27 100.608 80.75C104.928 87.23 107.088 95 107.088 104.06C107.088 113.12 104.928 120.89 100.608 127.37C96.2884 133.79 88.8484 137 78.2884 137H48.8584V71.03H78.2884ZM75.5884 128.36C79.4884 128.36 82.9384 127.79 85.9384 126.65C88.9384 125.45 91.4284 123.08 93.4084 119.54C95.4484 115.94 96.4684 110.78 96.4684 104.06C96.4684 97.34 95.4484 92.18 93.4084 88.58C91.4284 84.98 88.9384 82.61 85.9384 81.47C82.9384 80.27 79.4884 79.67 75.5884 79.67H58.6684V128.36H75.5884ZM153.168 137H141.648L119.418 106.31L107.268 119.18V137H97.4577V71.03H107.268V106.31L140.298 71.03H152.628L125.988 99.38L153.168 137Z" fill="#FEED01"/>
</svg>
